<svg xmlns="http://www.w3.org/2000/svg" class="thumbnail-icon" viewBox="11.969 0 176.063 200">
    <path d="M51.734 192.086c-8.695 0-16.12-3.127-22.276-9.38-6.156-6.155-9.282-13.678-9.282-22.374V40.06c0-8.696 3.029-16.22 9.086-22.375 6.156-6.155 13.483-9.281 22.081-9.38 8.403.099 15.535 3.127 21.398 9.185 5.96 5.96 8.89 13.19 8.89 21.69.098 40.45.196 81.388.196 122.814 0 9.575 4.006 17.294 12.115 23.254 6.156 4.592 11.92 6.839 17.294 6.839zm38.3-70.738c0-55.496-.098-83.634-.195-84.318-.586-10.357-4.592-19.15-12.115-26.283C70.2 3.615 61.212 0 50.953 0 40.205 0 31.02 3.81 23.4 11.53 15.78 19.15 11.97 28.333 11.97 39.18v121.64c0 10.846 3.81 20.03 11.431 27.651C31.021 196.19 40.205 200 50.953 200c63.019 0 96.238 0 99.462-.098 10.455-.488 19.346-4.494 26.673-12.213 7.328-7.62 10.943-16.61 10.943-27.064 0-10.845-3.81-20.029-11.333-27.748-7.621-7.718-16.805-11.529-27.553-11.529z" data-paper-data="{&quot;fillRule&quot;:&quot;nonzero&quot;,&quot;isIcon&quot;:true,&quot;iconStyle&quot;:&quot;standalone&quot;,&quot;selectedEffects&quot;:{&quot;container&quot;:&quot;&quot;,&quot;transformation&quot;:&quot;&quot;,&quot;pattern&quot;:&quot;&quot;},&quot;bounds&quot;:{&quot;x&quot;:212.7806425978797,&quot;y&quot;:115,&quot;width&quot;:124.43871480424059,&quot;height&quot;:141.35781199137756},&quot;iconType&quot;:&quot;initial&quot;,&quot;initialText&quot;:&quot;L&quot;,&quot;rawInitialId&quot;:304}"/>
</svg>
